<svg width="91" height="116" xmlns="http://www.w3.org/2000/svg">
  <g fill="#EDECE7" fill-rule="nonzero">
    <path d="M16.962 84.935a.467.467 0 01-.097.66c-.04.04-.098.059-.137.078a4.925 4.925 0 01-.895.194c-.195-.757-.156-.854.35-1.049.292-.116.584-.194.78.117zM1.465 100.436a.643.643 0 00-.623.641c-.02.291.098.505.468.525.408.038.778-.234.798-.564.039-.291-.273-.582-.643-.602zm43.2-71.988c-.467.019-.856.33-.817.621.039.292.253.427.545.389.35-.04.623-.233.584-.564 0-.175-.214-.33-.312-.446zM21.342 104.69c-.233.35-.428.505-.447.7-.04.271.155.504.545.504.33 0 .525-.194.448-.466-.078-.194-.273-.388-.546-.738zm26.75-47.086c-.078.253.175.466.467.447.214-.02.428-.175.818-.369-.409-.233-.604-.427-.857-.466-.117-.02-.39.213-.428.388zM20.31 63.878c.292.059.623-.29.603-.66a1.133 1.133 0 00-.487-.233c-.33-.039-.68.272-.584.544a.71.71 0 00.468.35zm34.264 40.715c-.331.02-.487.175-.467.447v.077a.463.463 0 00.564.389.56.56 0 00.39-.389c.058-.29-.098-.505-.487-.524zm-19.215-18.9c.078.194.233.33.428.388.292.058.642-.291.642-.64a1.112 1.112 0 00-.408-.253c-.273-.059-.72.252-.662.505zm22.35 2.486c-.37-.02-.487.272-.487.544s.155.427.642.447c.078-.175.253-.389.253-.603a.552.552 0 00-.409-.388zm-39.638 11.79c-.292-.057-.565.117-.526.39.02.174.253.349.487.64.253-.31.487-.466.487-.64 0-.117-.254-.35-.448-.39zm9.598-41.976c-.02.058-.02.116 0 .155.039.214.233.33.447.292.215-.02.39-.214.74-.428-.35-.194-.525-.408-.74-.408a.687.687 0 00-.447.389zm51.61-4.06a.968.968 0 00-.564.388c-.059.098.194.292.389.583.272-.272.506-.427.603-.621.04-.059-.311-.37-.428-.35zm-74.135-.291c-.292-.02-.526.155-.467.427.039.155.253.291.486.524.195-.291.429-.446.429-.621.02-.117-.273-.33-.448-.33zm22.583 25.893c.662-.233.662-.233.467-1.01-.74.233-.778.369-.467 1.01zm-16.275 2.603c-.195.291-.37.427-.39.602-.039.253.175.427.487.427.311 0 .526-.194.448-.446-.04-.175-.273-.311-.545-.583zm10.123 19.95a.587.587 0 00-.39-.409c-.038-.02-.097-.02-.136-.02a.379.379 0 00-.37.409c.02.155.234.291.448.563.214-.252.448-.388.448-.544zm9.968-2.39c.136-.02.233-.233.37-.408-.195-.214-.331-.505-.506-.524-.35-.04-.37.233-.35.485.019.292.155.486.486.447zm.603-10.431c-.058.233.156.447.468.427.175 0 .35-.175.681-.35-.331-.213-.506-.407-.7-.427a.59.59 0 00-.449.35zm-.389-50.99c.195-.04.448-.214.487-.33.039-.117-.195-.292-.41-.583-.213.29-.408.427-.427.582 0 .117.272.35.35.33zm12.771 46.308a.59.59 0 00-.448.35c-.019.136.195.291.41.583.233-.272.467-.408.447-.544a.587.587 0 00-.409-.389zM51.421 65.2c-.02.097.292.33.39.311a.71.71 0 00.467-.35c.039-.135-.176-.31-.39-.621-.253.31-.428.486-.467.66zm18.456 9.5c.136.135.292.349.428.368.136.02.35-.155.682-.35-.312-.194-.468-.388-.643-.369-.175.02-.311.214-.467.35zm-31.772.193a.628.628 0 00-.41.389c-.019.097.215.252.41.447.194-.195.37-.311.409-.447.019-.058 0-.097 0-.156a.311.311 0 00-.41-.233zm-16.47 20.066c.622-.136.622-.136.506-.796-.74.136-.74.136-.507.796zm-1.577-23.562a.678.678 0 00-.429.369c-.02.136.195.291.41.583.213-.292.388-.428.427-.583.02-.058 0-.117 0-.175-.077-.175-.253-.252-.408-.194zm49.78 7.42c-.02.058-.02.117-.02.175a.299.299 0 00.37.233.614.614 0 00.448-.369c.04-.097-.195-.252-.37-.486-.194.214-.39.311-.428.447zm-38.528 36.79c.078.195.234.331.429.39.136.038.311-.175.623-.39-.35-.155-.526-.31-.701-.33-.137 0-.39.253-.35.33zm-15.827-12.081c-.137 0-.41.194-.41.291 0 .155.176.31.39.641.214-.31.409-.466.409-.622 0-.116-.253-.31-.39-.31zm22.602-35.878c.117.116.214.31.37.33.156.02.331-.136.604-.291-.253-.175-.39-.35-.545-.35-.156.02-.293.194-.429.31zm-13.394 37.937c.02.136.234.233.35.35.098-.117.273-.253.292-.39.02-.096-.155-.232-.311-.446-.156.233-.35.35-.331.486zm10.396-13.365c-.39.059-.409.311-.35.583 0 .039.058.078.116.136.429.02.565-.214.546-.524-.02-.059-.234-.214-.312-.195zm25.465-16.822c-.156.195-.331.311-.35.447-.02.097.213.194.31.292.137-.117.312-.195.37-.33.02-.078-.175-.214-.33-.409zm-34.888-18.55c-.097 0-.272.194-.272.31-.02.117.136.253.233.447.117-.116.215-.233.293-.369.058-.194.038-.388-.254-.388zm-14.017 34.11c-.136-.02-.272 0-.37.097-.116.272.078.408.429.505.097-.233.272-.447-.059-.602zm10.396-2.234l.876.058c-.564-.466-.564-.466-.876-.058zM64.99 43.91l.39.097.136-.408-.292-.078-.234.389zm12.635-5.323a.503.503 0 00-.272.214c-.02.039.155.194.194.194.137-.058.273-.116.39-.213-.156-.098-.253-.214-.312-.195zM44.86 49.485c.098-.253 0-.428-.525-.544l.272.602.253-.058zm21.552 53.107c.058.117.136.194.233.292.078-.059.214-.136.214-.195-.02-.097-.116-.194-.214-.35-.136.098-.253.195-.233.253zm-1.597-47.066a3.377 3.377 0 00-.214.35c0 .019.156.135.175.116a.862.862 0 00.292-.233s-.136-.117-.253-.233zm25.406 36.11c.545.137.701.04.779-.446l-.779.447zM10.246 107.74c.155.078.292.194.311.175a.952.952 0 00.234-.253c-.098-.039-.195-.136-.273-.136-.078 0-.156.117-.272.214zm2.764-9.169c-.02.078.097.195.175.214.078.02.175-.078.35-.155-.136-.098-.194-.214-.291-.214-.078 0-.234.078-.234.155zm56.186-72.377c-.02.02.097.156.155.156.137-.02.253-.078.37-.136-.156-.117-.233-.214-.33-.214-.098 0-.137.117-.195.194zm-12.48 86.44c.078.06.176.156.253.156.078 0 .156-.097.292-.213-.175-.078-.272-.175-.35-.156-.078.02-.136.136-.195.214zM29.363 85.227c-.058-.019-.136.04-.214.059l.137.233.214-.117c-.04-.077-.078-.155-.137-.175zm53.655-7.536c-.02.019.117.136.156.136a.817.817 0 00.272-.175c-.117-.078-.214-.156-.233-.156a.38.38 0 00-.195.195zM-2 90.918c0 .039.117.097.195.155l.194-.233-.214-.136c-.058.058-.156.136-.175.214z"/>
    <path d="M16.962 58.935a.467.467 0 01-.097.66c-.04.04-.098.059-.137.078a4.925 4.925 0 01-.895.194c-.195-.757-.156-.854.35-1.049.292-.116.584-.194.78.117zM1.465 74.436a.643.643 0 00-.623.641c-.02.291.098.505.468.525.408.038.778-.234.798-.564.039-.291-.273-.582-.643-.602zm43.2-71.988c-.467.019-.856.33-.817.621.039.292.253.427.545.389.35-.04.623-.233.584-.564 0-.175-.214-.33-.312-.446zM21.342 78.69c-.233.35-.428.505-.447.7-.04.271.155.504.545.504.33 0 .525-.194.448-.466-.078-.194-.273-.388-.546-.738zm26.75-47.086c-.078.253.175.466.467.447.214-.02.428-.175.818-.369-.409-.233-.604-.427-.857-.466-.117-.02-.39.213-.428.388zM20.31 37.878c.292.059.623-.29.603-.66a1.133 1.133 0 00-.487-.233c-.33-.039-.68.272-.584.544a.71.71 0 00.468.35zm34.264 40.715c-.331.02-.487.175-.467.447v.077a.463.463 0 00.564.389.56.56 0 00.39-.389c.058-.29-.098-.505-.487-.524zm-19.215-18.9c.078.194.233.33.428.388.292.058.642-.291.642-.64a1.112 1.112 0 00-.408-.253c-.273-.059-.72.252-.662.505zm22.35 2.486c-.37-.02-.487.272-.487.544s.155.427.642.447c.078-.175.253-.389.253-.603a.552.552 0 00-.409-.388zm-39.638 11.79c-.292-.057-.565.117-.526.39.02.174.253.349.487.64.253-.31.487-.466.487-.64 0-.117-.254-.35-.448-.39zm9.598-41.976c-.02.058-.02.116 0 .155.039.214.233.33.447.292.215-.02.39-.214.74-.428-.35-.194-.525-.408-.74-.408a.687.687 0 00-.447.389zm51.61-4.06a.968.968 0 00-.564.388c-.059.098.194.292.389.583.272-.272.506-.427.603-.621.04-.059-.311-.37-.428-.35zm-74.135-.291c-.292-.02-.526.155-.467.427.039.155.253.291.486.524.195-.291.429-.446.429-.621.02-.117-.273-.33-.448-.33zm22.583 25.893c.662-.233.662-.233.467-1.01-.74.233-.778.369-.467 1.01zm-16.275 2.603c-.195.291-.37.427-.39.602-.039.253.175.427.487.427.311 0 .526-.194.448-.446-.04-.175-.273-.311-.545-.583zm10.123 19.95a.587.587 0 00-.39-.409c-.038-.02-.097-.02-.136-.02a.379.379 0 00-.37.409c.02.155.234.291.448.563.214-.252.448-.388.448-.544zm9.968-2.39c.136-.02.233-.233.37-.408-.195-.214-.331-.505-.506-.524-.35-.04-.37.233-.35.485.019.292.155.486.486.447zm.603-10.431c-.058.233.156.447.468.427.175 0 .35-.175.681-.35-.331-.213-.506-.407-.7-.427a.59.59 0 00-.449.35zm-.389-50.99c.195-.04.448-.214.487-.33.039-.117-.195-.292-.41-.583-.213.29-.408.427-.427.582 0 .117.272.35.35.33zm12.771 46.308a.59.59 0 00-.448.35c-.019.136.195.291.41.583.233-.272.467-.408.447-.544a.587.587 0 00-.409-.389zM51.421 39.2c-.02.098.292.33.39.311a.71.71 0 00.467-.35c.039-.135-.176-.31-.39-.621-.253.31-.428.486-.467.66zm18.456 9.5c.136.135.292.349.428.368.136.02.35-.155.682-.35-.312-.194-.468-.388-.643-.369-.175.02-.311.214-.467.35zm-31.772.193a.628.628 0 00-.41.389c-.019.097.215.252.41.447.194-.195.37-.311.409-.447.019-.058 0-.097 0-.156a.311.311 0 00-.41-.233zm-16.47 20.066c.622-.136.622-.136.506-.796-.74.136-.74.136-.507.796zm-1.577-23.562a.678.678 0 00-.429.369c-.02.136.195.291.41.583.213-.292.388-.428.427-.583.02-.058 0-.117 0-.175-.077-.175-.253-.252-.408-.194zm49.78 7.42c-.02.058-.02.117-.02.175a.299.299 0 00.37.233.614.614 0 00.448-.369c.04-.097-.195-.252-.37-.486-.194.214-.39.311-.428.447zM31.31 89.606c.078.195.234.331.429.39.136.038.311-.175.623-.39-.35-.155-.526-.31-.701-.33-.137 0-.39.253-.35.33zM15.483 77.526c-.137 0-.41.194-.41.291 0 .155.176.31.39.641.214-.31.409-.466.409-.622 0-.116-.253-.31-.39-.31zm22.602-35.878c.117.116.214.31.37.33.156.02.331-.136.604-.291-.253-.175-.39-.35-.545-.35-.156.02-.293.194-.429.31zM24.691 79.584c.02.136.234.233.35.35.098-.117.273-.253.292-.39.02-.096-.155-.232-.311-.446-.156.233-.35.35-.331.486zm10.396-13.365c-.39.059-.409.311-.35.583 0 .039.058.078.116.136.429.02.565-.214.546-.524-.02-.059-.234-.214-.312-.195zm25.465-16.822c-.156.195-.331.311-.35.447-.02.097.213.194.31.292.137-.117.312-.195.37-.33.02-.078-.175-.214-.33-.409zm-34.888-18.55c-.097 0-.272.194-.272.31-.02.117.136.253.233.447.117-.116.215-.233.293-.369.058-.194.038-.388-.254-.388zm-14.017 34.11c-.136-.02-.272 0-.37.097-.116.272.078.408.429.505.097-.233.272-.447-.059-.602zm10.396-2.234l.876.058c-.564-.466-.564-.466-.876-.058zM64.99 17.91l.39.097.136-.408-.292-.078-.234.389zm12.635-5.323a.503.503 0 00-.272.214c-.02.039.155.194.194.194.137-.058.273-.116.39-.213-.156-.098-.253-.214-.312-.195zM44.86 23.485c.098-.253 0-.428-.525-.544l.272.602.253-.058zm21.552 53.107c.058.117.136.194.233.292.078-.059.214-.136.214-.195-.02-.097-.116-.194-.214-.35-.136.098-.253.195-.233.253zm-1.597-47.066a3.377 3.377 0 00-.214.35c0 .019.156.135.175.116a.862.862 0 00.292-.233s-.136-.117-.253-.233zm25.406 36.11c.545.137.701.04.779-.446l-.779.447zM10.246 81.74c.155.078.292.194.311.175a.952.952 0 00.234-.253c-.098-.039-.195-.136-.273-.136-.078 0-.156.117-.272.214zm2.764-9.169c-.02.078.097.195.175.214.078.02.175-.078.35-.155-.136-.098-.194-.214-.291-.214-.078 0-.234.078-.234.155zM69.196.194c-.02.02.097.156.155.156.137-.02.253-.078.37-.136-.156-.117-.233-.214-.33-.214-.098 0-.137.117-.195.194zm-12.48 86.44c.078.06.176.156.253.156.078 0 .156-.097.292-.213-.175-.078-.272-.175-.35-.156-.078.02-.136.136-.195.214zM29.363 59.227c-.058-.019-.136.04-.214.059l.137.233.214-.117c-.04-.077-.078-.155-.137-.175zm53.655-7.536c-.02.019.117.136.156.136a.817.817 0 00.272-.175c-.117-.078-.214-.156-.233-.156a.38.38 0 00-.195.195zM-2 64.918c0 .039.117.097.195.155l.194-.233-.214-.136c-.058.058-.156.136-.175.214z"/>
  </g>
</svg>
